<svg xmlns="http://www.w3.org/2000/svg" viewBox="0 0 40 40" fill="none">
  <rect width="40" height="40" rx="8" fill="#6663f2"/>
  <path d="M20 8C13.373 8 8 13.373 8 20s5.373 12 12 12 12-5.373 12-12S26.627 8 20 8zm0 2c5.523 0 10 4.477 10 10s-4.477 10-10 10-10-4.477-10-10S14.477 10 20 10z" fill="white" opacity="0.3"/>
  <circle cx="20" cy="20" r="6" fill="white"/>
  <path d="M17 19.5l2 2 4-4" stroke="#6663f2" stroke-width="1.5" stroke-linecap="round" stroke-linejoin="round"/>
  <path d="M28 14l3-3M12 14l-3-3M28 26l3 3M12 26l-3 3" stroke="white" stroke-width="1.5" stroke-linecap="round" opacity="0.5"/>
</svg>
